<svg width="96" height="83" viewBox="0 0 96 83" fill="none" xmlns="http://www.w3.org/2000/svg">
<g id="Group 37166">
<g id="Group 37126">
<rect id="Rectangle 694" x="0.742676" y="0.272949" width="95" height="82.5578" rx="10" fill="#2CB57F"/>
<g id="Group 37207">
<path id="Vector" d="M22.5836 72.6873C19.7601 69.8633 17.9869 66.1588 17.5582 62.1884C17.1295 58.2181 18.0711 54.2205 20.2267 50.8588C21.6469 49.9534 22.6054 48.9044 22.8798 47.6423L51.2497 19.2723C52.8748 17.6472 54.8041 16.3581 56.9273 15.4786C59.0506 14.5992 61.3263 14.1465 63.6245 14.1465C65.9227 14.1465 68.1984 14.5992 70.3217 15.4786C72.4449 16.3581 74.3742 17.6472 75.9993 19.2723C77.6243 20.8974 78.9134 22.8266 79.7929 24.9499C80.6724 27.0732 81.1251 29.3489 81.1251 31.6471C81.1251 33.9453 80.6724 36.221 79.7929 38.3442C78.9134 40.4675 77.6243 42.3967 75.9993 44.0218L47.3332 72.6873C45.7081 74.3124 43.7788 75.6015 41.6556 76.4809C39.5323 77.3604 37.2566 77.8131 34.9584 77.8131C32.6602 77.8131 30.3845 77.3604 28.2612 76.4809C26.138 75.6015 24.2087 74.3124 22.5836 72.6873Z" fill="#7AAEED"/>
<path id="Vector_2" d="M49.095 26.4104C49.095 26.4104 34.2463 39.1383 43.5709 54.9116C43.5709 54.9116 54.3461 56.3367 63.2941 47.3889L49.095 26.4104Z" fill="#497FCE"/>
<path id="Vector_3" d="M68.4687 45.7831L65.7012 43.0156C46.6587 60.6352 27.5287 50.5576 22.8798 47.6417L22.5843 47.9372C21.6969 48.8242 20.9072 49.8036 20.2285 50.8589C47.6699 68.4664 68.4687 45.7831 68.4687 45.7831Z" fill="#E6F3FF"/>
<path id="Vector_4" d="M72.7701 41.4805C78.1199 36.1308 78.1199 27.4571 72.7701 22.1073C67.4203 16.7575 58.7466 16.7575 53.3969 22.1073L49.0943 26.4098C43.7445 31.7596 43.7445 40.4333 49.0943 45.7831C54.4441 51.1329 63.1178 51.1329 68.4676 45.7831L72.7701 41.4805Z" fill="#FFCEC7"/>
<path id="Vector_5" d="M56.4352 33.4397C56.2703 33.2749 56.1777 33.0513 56.1777 32.8182C56.1777 32.5851 56.2703 32.3615 56.4352 32.1966L56.8598 31.7718C56.9415 31.6902 57.0384 31.6255 57.145 31.5813C57.2517 31.5371 57.366 31.5144 57.4814 31.5144C57.5969 31.5144 57.7112 31.5372 57.8178 31.5813C57.9245 31.6255 58.0214 31.6903 58.103 31.7719C58.1846 31.8535 58.2494 31.9505 58.2935 32.0571C58.3377 32.1638 58.3604 32.2781 58.3604 32.3935C58.3604 32.509 58.3377 32.6233 58.2935 32.7299C58.2493 32.8366 58.1846 32.9335 58.1029 33.0151L57.6783 33.4397C57.5134 33.6046 57.2898 33.6972 57.0567 33.6972C56.8236 33.6972 56.6 33.6046 56.4352 33.4397Z" fill="#383844"/>
<path id="Vector_6" d="M61.882 38.886C61.7171 38.7212 61.6245 38.4976 61.6245 38.2645C61.6245 38.0314 61.7171 37.8078 61.882 37.6429L62.3066 37.2181C62.4715 37.0533 62.6951 36.9607 62.9282 36.9607C63.1613 36.9607 63.3849 37.0533 63.5498 37.2182C63.7146 37.3831 63.8072 37.6067 63.8072 37.8398C63.8072 38.0729 63.7146 38.2965 63.5497 38.4614L63.125 38.886C62.9602 39.0509 62.7366 39.1435 62.5035 39.1435C62.2704 39.1435 62.0468 39.0509 61.882 38.886Z" fill="#383844"/>
<path id="Vector_7" d="M67.0269 30.0776C66.9085 29.9592 66.7917 29.8336 66.6764 29.7006C66.4675 29.4866 65.5446 28.4609 65.577 27.075C65.5917 26.4497 65.8193 25.5168 66.8211 24.6245C67.979 23.5928 69.3824 23.4949 70.6712 24.356C70.8618 24.4868 70.9933 24.6875 71.037 24.9146C71.0807 25.1417 71.0332 25.3768 70.9048 25.5691C70.7763 25.7614 70.5773 25.8953 70.3508 25.9418C70.1242 25.9884 69.8885 25.9438 69.6947 25.8177C69.0741 25.4031 68.5484 25.4401 67.9905 25.9371C67.5617 26.3191 67.3474 26.7019 67.3352 27.1072C67.3128 27.8371 67.935 28.4727 67.9412 28.4791C67.9561 28.4939 67.975 28.5141 67.9892 28.5299C68.6648 29.3149 69.3675 29.7258 70.0806 29.7527C71.1195 29.7917 71.9186 29.0241 71.9258 29.0162C73.0097 27.9323 73.5467 26.8123 73.5221 25.6878C73.4848 23.999 72.1904 22.7675 72.1772 22.7554C72.0913 22.6776 72.0216 22.5837 71.9721 22.4789C71.9226 22.3741 71.8944 22.2606 71.8889 22.1449C71.8835 22.0291 71.901 21.9135 71.9404 21.8045C71.9799 21.6956 72.0404 21.5955 72.1187 21.51C72.1969 21.4246 72.2913 21.3554 72.3963 21.3066C72.5014 21.2577 72.6151 21.2301 72.7308 21.2254C72.8466 21.2206 72.9622 21.2388 73.0709 21.2788C73.1796 21.3189 73.2793 21.38 73.3643 21.4587C73.4399 21.5283 75.2254 23.1904 75.2796 25.649C75.3154 27.2719 74.6052 28.823 73.1689 30.2593C73.115 30.3132 71.8289 31.5777 70.0145 31.5095C68.94 31.4695 67.9373 30.9886 67.0269 30.0776Z" fill="#383844"/>
<path id="Vector_8" d="M58.1988 40.6369C58.1426 40.6369 58.0865 40.6315 58.0313 40.6209C56.2295 40.2734 54.9216 38.8648 54.9216 37.2714C54.9216 37.0382 55.0142 36.8146 55.1791 36.6498C55.3439 36.4849 55.5675 36.3923 55.8007 36.3923C56.0338 36.3923 56.2574 36.4849 56.4222 36.6498C56.5871 36.8146 56.6797 37.0382 56.6797 37.2714C56.6797 38.084 57.5363 38.735 58.3643 38.8947C58.5789 38.9361 58.7703 39.056 58.9012 39.231C59.0322 39.4059 59.0932 39.6233 59.0726 39.8409C59.0519 40.0584 58.9509 40.2604 58.7894 40.4076C58.6278 40.5547 58.4173 40.6366 58.1988 40.6369Z" fill="#383844"/>
<path id="Vector_9" d="M53.554 33.0176C54.099 32.4726 54.0723 31.5621 53.4942 30.984C52.9161 30.4059 52.0056 30.3791 51.4606 30.9242C50.9155 31.4693 50.9423 32.3798 51.5203 32.9578C52.0984 33.5359 53.0089 33.5627 53.554 33.0176Z" fill="#FFABAB"/>
<path id="Vector_10" d="M64.5886 44.0538C65.1337 43.5087 65.1069 42.5982 64.5289 42.0201C63.9508 41.442 63.0403 41.4153 62.4952 41.9603C61.9502 42.5054 61.9769 43.4159 62.555 43.994C63.1331 44.5721 64.0436 44.5988 64.5886 44.0538Z" fill="#FFABAB"/>
</g>
</g>
</g>
</svg>
