<svg width="23" height="23" viewBox="0 0 23 23" fill="none" xmlns="http://www.w3.org/2000/svg">
<g id="Group 37129">
<g id="Ellipse 6">
<path d="M22.5889 11.2957C20.4452 16.7662 17.7476 22.1089 11.7756 22.1089C5.80361 22.1089 0.588867 16.1981 0.588867 10.2261C3.34575 5.22953 5.80361 0.482422 11.7756 0.482422C18.8798 2.35119 22.5889 5.32368 22.5889 11.2957Z" fill="#096BA2"/>
<path d="M22.5889 11.2957C20.4452 16.7662 17.7476 22.1089 11.7756 22.1089C5.80361 22.1089 0.588867 16.1981 0.588867 10.2261C3.34575 5.22953 5.80361 0.482422 11.7756 0.482422C18.8798 2.35119 22.5889 5.32368 22.5889 11.2957Z" fill="#D9D9D9"/>
</g>
<g id="Group 37138">
<path id="Vector" d="M6.30408 11.0492C6.16418 11.0493 6.05089 11.1628 6.05101 11.3027C6.05114 11.4426 6.16466 11.5559 6.30453 11.5558L16.8731 11.5461C17.013 11.546 17.1263 11.4325 17.1261 11.2926C17.126 11.1527 17.0125 11.0394 16.8726 11.0395L6.30408 11.0492Z" fill="black"/>
<path id="Vector_2" d="M11.7573 6.00982C11.755 5.86994 11.6398 5.75839 11.5 5.76064C11.3601 5.7629 11.2485 5.87813 11.2508 6.01798L11.4213 16.5852C11.4236 16.725 11.5388 16.8366 11.6787 16.8343C11.8185 16.8321 11.9301 16.7169 11.9278 16.577L11.7573 6.00982Z" fill="black"/>
</g>
</g>
</svg>
