<svg width="30" height="29" viewBox="0 0 30 29" fill="none" xmlns="http://www.w3.org/2000/svg">
<g id="Group 37129">
<g id="Ellipse 6">
<path d="M29.5892 14.5269C26.768 21.7262 23.218 28.7573 15.3587 28.7573C7.49943 28.7573 0.636719 20.9786 0.636719 13.1193C4.26483 6.54368 7.49943 0.296387 15.3587 0.296387C24.708 2.75572 29.5892 6.66758 29.5892 14.5269Z" fill="#096BA2"/>
<path d="M29.5892 14.5269C26.768 21.7262 23.218 28.7573 15.3587 28.7573C7.49943 28.7573 0.636719 20.9786 0.636719 13.1193C4.26483 6.54368 7.49943 0.296387 15.3587 0.296387C24.708 2.75572 29.5892 6.66758 29.5892 14.5269Z" fill="#D9D9D9"/>
</g>
<g id="Group 37136">
<path id="Vector" d="M10.04 19.295C9.912 19.4274 9.91559 19.6384 10.0479 19.7664C10.1803 19.8943 10.3913 19.8907 10.5193 19.7584L20.186 9.75838C20.3139 9.62601 20.3103 9.41498 20.178 9.28704C20.0456 9.15907 19.8346 9.16267 19.7066 9.29501L10.04 19.295Z" fill="black"/>
<path id="Vector_2" d="M19.7066 19.7584C19.8346 19.8907 20.0456 19.8943 20.178 19.7663C20.3103 19.6384 20.3139 19.4274 20.1859 19.295L10.5193 9.29502C10.3913 9.16266 10.1803 9.15908 10.0479 9.28703C9.91559 9.41497 9.91201 9.626 10.04 9.75836L19.7066 19.7584Z" fill="black"/>
</g>
</g>
</svg>
