<svg width="6" height="6" viewBox="0 0 6 6" fill="none" xmlns="http://www.w3.org/2000/svg">
<path id="Vector" d="M5.65006 2.67713C5.6359 2.5968 5.5993 2.52202 5.54444 2.4613C5.48958 2.40057 5.41865 2.35633 5.33972 2.33362L4.22785 2.01262L3.8632 0.924045C3.83737 0.846602 3.79023 0.777874 3.72709 0.725639C3.66396 0.673404 3.58735 0.639741 3.50594 0.628464C3.42453 0.617187 3.34156 0.628748 3.26642 0.661829C3.19129 0.694911 3.12698 0.748192 3.08077 0.815656L2.42964 1.76327L1.27242 1.76979C1.19021 1.77017 1.10974 1.79336 1.04013 1.83676C0.970512 1.88016 0.914528 1.94204 0.878508 2.01538C0.842489 2.08872 0.827872 2.1706 0.836312 2.25175C0.844751 2.3329 0.875911 2.41009 0.926264 2.47458L1.63648 3.38784L1.28495 4.48293C1.25983 4.56064 1.25716 4.64379 1.27726 4.72293C1.29735 4.80207 1.3394 4.87402 1.39863 4.93064C1.45786 4.98726 1.53189 5.02627 1.61234 5.04324C1.69278 5.0602 1.7764 5.05444 1.85372 5.02662L2.94291 4.63811L3.88349 5.30795C3.90823 5.32543 3.93461 5.34051 3.96227 5.35296C4.03342 5.38425 4.11163 5.39634 4.189 5.38798C4.26637 5.37962 4.34013 5.35112 4.40283 5.30537C4.46553 5.25962 4.51494 5.19826 4.54605 5.12746C4.57715 5.05667 4.58886 4.97898 4.57997 4.90226L4.54476 3.79058L5.47758 3.11008C5.54468 3.06152 5.59651 2.99504 5.62705 2.9184C5.65758 2.84176 5.66556 2.7581 5.65006 2.67713Z" fill="#FFD100"/>
</svg>
